<svg width="1961" height="373" viewBox="0 0 1961 373" fill="none" xmlns="http://www.w3.org/2000/svg">
<path d="M292.967 234.261H373.299C363.849 312.168 308.915 373 190.192 373C79.1478 373 0 299.895 0 186.234C0 74.1734 80.3287 0 190.192 0C307.144 0 364.436 59.7672 373.299 139.278H292.967C285.882 98.7192 256.938 64.0368 191.963 64.0368C129.945 64.0368 82.1 110.992 82.6904 186.766C82.6904 263.608 129.945 308.966 192.554 308.966C258.709 308.966 286.472 274.816 292.967 234.261Z" fill="#001231"/>
<path d="M549.314 178.228H628.465C671.583 177.696 693.436 155.286 693.436 121.133C693.436 87.5154 671.583 64.567 628.465 64.567H549.314V178.228ZM803.889 367.134C793.849 369.8 779.675 372.468 761.952 372.468C703.476 372.468 680.443 348.988 659.768 313.237L614.878 235.33H549.314V369.8H467.801V3.73797H628.465C719.424 3.73797 775.539 45.3589 775.539 120.065C775.539 171.293 746.594 206.511 701.114 223.589L738.328 289.759C748.369 307.367 760.771 312.704 776.129 312.704C786.17 312.704 793.258 311.636 799.166 310.036L803.889 367.134Z" fill="#001231"/>
<path d="M1177.78 308.434V369.799H891.899V3.7373H1174.24V65.6377H973.412V153.149H1151.79V212.916H973.412V308.434H1177.78Z" fill="#001231"/>
<path d="M1488.47 232.124L1428.81 68.8385L1368.56 232.124H1488.47ZM1510.32 290.29H1346.71L1317.76 369.798H1236.25L1380.96 3.73672H1476.06L1620.77 369.798H1539.26L1510.32 290.29Z" fill="#001231"/>
<path d="M1751.31 66.1684H1623.14V3.73554H1961V66.1684H1832.82V369.797H1751.31V66.1684Z" fill="#001231"/>
</svg>
