<svg xmlns="http://www.w3.org/2000/svg" fill="none" viewBox="0 0 952 215">
  <g id="Horizontal-Outline">
    <g id="Creat" stroke="#f00">
        <mask id="path-1-inside-1_69_83" fill="#fff">
          <path d="M358.458 124.259h28.54c-3.357 27.69-22.873 49.31-65.055 49.31-39.453 0-67.573-25.982-67.573-66.378C254.37 67.363 282.91 41 321.943 41c41.551 0 61.907 21.241 65.055 49.501h-28.54c-2.519-14.414-12.801-26.742-35.885-26.742-22.035 0-39.034 16.69-38.823 43.621 0 27.309 16.788 43.431 39.032 43.431 23.504 0 33.368-12.138 35.676-26.552Z"/>
        </mask>
        <path stroke="#000" stroke-width="4" d="M358.458 124.259h28.54c-3.357 27.69-22.873 49.31-65.055 49.31-39.453 0-67.573-25.982-67.573-66.378C254.37 67.363 282.91 41 321.943 41c41.551 0 61.907 21.241 65.055 49.501h-28.54c-2.519-14.414-12.801-26.742-35.885-26.742-22.035 0-39.034 16.69-38.823 43.621 0 27.309 16.788 43.431 39.032 43.431 23.504 0 33.368-12.138 35.676-26.552Z" mask="url(#path-1-inside-1_69_83)"/>
        <mask id="path-2-inside-2_69_83" fill="#fff">
          <path d="M449.535 104.345h28.12c15.32-.189 23.084-8.154 23.084-20.293 0-11.948-7.764-20.103-23.084-20.103h-28.12v40.396Zm90.448 67.139c-3.568.948-8.604 1.896-14.9 1.896-20.776 0-28.962-8.345-36.306-21.052l-15.949-27.689h-23.293v47.793h-28.962V42.328h57.082c32.318 0 52.254 14.793 52.254 41.345 0 18.207-10.284 30.724-26.442 36.792l13.221 23.519c3.568 6.257 7.975 8.155 13.431 8.155 3.568 0 6.086-.38 8.184-.948l1.68 20.293Z"/>
        </mask>
        <path stroke="#000" stroke-width="4" d="M449.535 104.345h28.12c15.32-.189 23.084-8.154 23.084-20.293 0-11.948-7.764-20.103-23.084-20.103h-28.12v40.396Zm90.448 67.139c-3.568.948-8.604 1.896-14.9 1.896-20.776 0-28.962-8.345-36.306-21.052l-15.949-27.689h-23.293v47.793h-28.962V42.328h57.082c32.318 0 52.254 14.793 52.254 41.345 0 18.207-10.284 30.724-26.442 36.792l13.221 23.519c3.568 6.257 7.975 8.155 13.431 8.155 3.568 0 6.086-.38 8.184-.948l1.68 20.293Z" mask="url(#path-2-inside-2_69_83)"/>
        <mask id="path-3-inside-3_69_83" fill="#fff">
          <path d="M672.821 150.622v21.809h-101.57V42.327h100.312v22h-71.352v31.104h63.377v21.242h-63.377v33.949h72.61Z"/>
        </mask>
        <path stroke="#000" stroke-width="4" d="M672.821 150.622v21.809h-101.57V42.327h100.312v22h-71.352v31.104h63.377v21.242h-63.377v33.949h72.61Z" mask="url(#path-3-inside-3_69_83)"/>
        <mask id="path-4-inside-4_69_83" fill="#fff">
          <path d="m783.203 123.501-21.195-58.035-21.407 58.035h42.602Zm7.764 20.672h-58.13l-10.282 28.259h-28.96l51.413-130.104h33.787l51.416 130.104h-28.96l-10.284-28.259Z"/>
        </mask>
        <path stroke="#000" stroke-width="4" d="m783.203 123.501-21.195-58.035-21.407 58.035h42.602Zm7.764 20.672h-58.13l-10.282 28.259h-28.96l51.413-130.104h33.787l51.416 130.104h-28.96l-10.284-28.259Z" mask="url(#path-4-inside-4_69_83)"/>
        <mask id="path-5-inside-5_69_83" fill="#fff">
          <path d="M876.589 64.518h-45.538v-22.19h120.037v22.19h-45.539v107.914h-28.96V64.518Z"/>
        </mask>
        <path stroke="#000" stroke-width="4" d="M876.589 64.518h-45.538v-22.19h120.037v22.19h-45.539v107.914h-28.96V64.518Z" mask="url(#path-5-inside-5_69_83)"/>
    </g>
    <g id="Flower">
      <g id="path20">
        <mask id="path-6-inside-6_69_83" fill="#fff">
          <path d="M40.745 214.367c0-36.694 29.744-66.44 66.438-66.44 36.696 0 66.44 29.746 66.44 66.44 0-24.462-19.829-44.294-44.294-44.294a44.068 44.068 0 0 0-22.146 5.929c-13.24 7.656-22.145 21.968-22.145 38.365H40.745Z"/>
        </mask>
        <path stroke="#000" stroke-width="4" d="M40.745 214.367c0-36.694 29.744-66.44 66.438-66.44 36.696 0 66.44 29.746 66.44 66.44 0-24.462-19.829-44.294-44.294-44.294a44.068 44.068 0 0 0-22.146 5.929c-13.24 7.656-22.145 21.968-22.145 38.365H40.745Z" mask="url(#path-6-inside-6_69_83)"/>
      </g>
      <g id="path24">
        <mask id="path-7-inside-7_69_83" fill="#fff">
          <path d="M107 174.156A43.475 43.475 0 0 1 129.332 168C154.004 168 174 188.596 174 214h-44.668c0-17.028-8.98-31.893-22.332-39.844Z"/>
        </mask>
        <path stroke="#000" stroke-width="4" d="M107 174.156A43.475 43.475 0 0 1 129.332 168C154.004 168 174 188.596 174 214h-44.668c0-17.028-8.98-31.893-22.332-39.844Z" mask="url(#path-7-inside-7_69_83)"/>
      </g>
      <g id="path28">
        <mask id="path-8-inside-8_69_83" fill="#fff">
          <path d="M40.745 0c0 24.461 19.83 44.293 44.293 44.293a44.067 44.067 0 0 0 22.145-5.928c13.24-7.657 22.146-21.969 22.146-38.365h44.294c0 36.695-29.744 66.439-66.44 66.439-36.694 0-66.438-29.744-66.438-66.439Z"/>
        </mask>
        <path stroke="#000" stroke-width="4" d="M40.745 0c0 24.461 19.83 44.293 44.293 44.293a44.067 44.067 0 0 0 22.145-5.928c13.24-7.657 22.146-21.969 22.146-38.365h44.294c0 36.695-29.744 66.439-66.44 66.439-36.694 0-66.438-29.744-66.438-66.439Z" mask="url(#path-8-inside-8_69_83)"/>
      </g>
      <g id="path32">
        <mask id="path-9-inside-9_69_83" fill="#fff">
          <path d="M41 0h44c0 17.028 8.847 31.891 22 39.844C100.527 43.76 93.016 46 85 46 60.699 46 41 25.404 41 0Z"/>
        </mask>
        <path stroke="#000" stroke-width="4" d="M41 0h44c0 17.028 8.847 31.891 22 39.844C100.527 43.76 93.016 46 85 46 60.699 46 41 25.404 41 0Z" mask="url(#path-9-inside-9_69_83)"/>
      </g>
      <g id="path36">
        <mask id="path-10-inside-10_69_83" fill="#fff">
          <path d="M147.928 107.184c0-36.696 29.744-66.44 66.439-66.44-24.461 0-44.293 19.829-44.293 44.294 0 8.068 2.158 15.63 5.928 22.146 7.656 13.24 21.969 22.144 38.365 22.144v44.294c-36.695 0-66.439-29.744-66.439-66.438Z"/>
        </mask>
        <path stroke="#000" stroke-width="4" d="M147.928 107.184c0-36.696 29.744-66.44 66.439-66.44-24.461 0-44.293 19.829-44.293 44.294 0 8.068 2.158 15.63 5.928 22.146 7.656 13.24 21.969 22.144 38.365 22.144v44.294c-36.695 0-66.439-29.744-66.439-66.438Z" mask="url(#path-10-inside-10_69_83)"/>
      </g>
      <g id="path40">
        <mask id="path-11-inside-11_69_83" fill="#fff">
          <path d="M168 85.001C168 60.698 188.596 41 214 41v44.001c-17.028 0-31.893 8.847-39.844 21.999-3.914-6.473-6.156-13.984-6.156-21.999Z"/>
        </mask>
        <path stroke="#000" stroke-width="4" d="M168 85.001C168 60.698 188.596 41 214 41v44.001c-17.028 0-31.893 8.847-39.844 21.999-3.914-6.473-6.156-13.984-6.156-21.999Z" mask="url(#path-11-inside-11_69_83)"/>
      </g>
      <g id="path44">
        <mask id="path-12-inside-12_69_83" fill="#fff">
          <path d="M0 85.038V40.744c36.696 0 66.44 29.744 66.44 66.44 0 36.694-29.744 66.438-66.44 66.438 24.461 0 44.295-19.829 44.295-44.294a44.067 44.067 0 0 0-5.93-22.144C30.71 93.944 16.397 85.038 0 85.038Z"/>
        </mask>
        <path stroke="#000" stroke-width="4" d="M0 85.038V40.744c36.696 0 66.44 29.744 66.44 66.44 0 36.694-29.744 66.438-66.44 66.438 24.461 0 44.295-19.829 44.295-44.294a44.067 44.067 0 0 0-5.93-22.144C30.71 93.944 16.397 85.038 0 85.038Z" mask="url(#path-12-inside-12_69_83)"/>
      </g>
      <g id="path48">
        <mask id="path-13-inside-13_69_83" fill="#fff">
          <path d="M0 174v-44.669c17.029 0 31.892-8.979 39.842-22.331A43.458 43.458 0 0 1 46 129.331C46 154.003 25.403 174 0 174Z"/>
        </mask>
        <path stroke="#000" stroke-width="4" d="M0 174v-44.669c17.029 0 31.892-8.979 39.842-22.331A43.458 43.458 0 0 1 46 129.331C46 154.003 25.403 174 0 174Z" mask="url(#path-13-inside-13_69_83)"/>
      </g>
    </g>
  </g>
</svg>

