<svg width="2945" height="800" viewBox="0 0 2945 800" fill="none" xmlns="http://www.w3.org/2000/svg">
<path d="M647.945 0C647.945 136.945 536.948 247.946 399.999 247.946C263.054 247.946 152.056 136.945 152.056 0C152.056 91.2897 226.057 165.301 317.357 165.301C347.466 165.301 375.684 157.247 399.999 143.177C449.412 114.604 482.648 61.1911 482.648 0H647.945Z" fill="#ED145A"/>
<path d="M399.999 143.177C375.684 157.247 347.466 165.301 317.357 165.301C226.054 165.301 152.056 91.2863 152.056 0L317.359 5.5304e-05C317.359 61.1912 350.589 114.604 399.999 143.177Z" fill="#C00848"/>
<path d="M647.945 799.999C647.945 708.712 573.948 634.698 482.648 634.698C452.535 634.698 424.314 642.756 399.999 656.821C350.589 685.398 317.357 738.811 317.357 799.999H152.056C152.056 663.054 263.054 552.056 399.999 552.056C536.948 552.056 647.945 663.054 647.945 799.999Z" fill="#ED145A"/>
<path d="M647.945 799.999H482.648C482.648 738.811 449.412 685.398 399.999 656.821C424.314 642.756 452.535 634.698 482.648 634.698C573.948 634.698 647.945 708.712 647.945 799.999Z" fill="#C00848"/>
<path d="M247.946 400.001C247.946 536.946 136.945 647.947 0 647.947C91.2897 647.947 165.301 573.946 165.301 482.643C165.301 452.534 157.246 424.316 143.181 400.001C114.604 350.591 61.1911 317.356 0 317.356V152.055C136.945 152.055 247.946 263.056 247.946 400.001Z" fill="#ED145A"/>
<path d="M165.301 482.643C165.301 573.946 91.2903 647.944 0.000541031 647.944V482.643C61.1917 482.643 114.604 449.411 143.178 400.002C157.247 424.317 165.301 452.534 165.301 482.643Z" fill="#C00848"/>
<path d="M800 482.643V647.944C663.055 647.944 552.054 536.943 552.054 400.002C552.054 263.057 663.055 152.056 800 152.056C708.713 152.056 634.702 226.056 634.702 317.356C634.702 347.465 642.757 375.683 656.823 400.002C685.399 449.411 738.812 482.643 800 482.643Z" fill="#ED145A"/>
<path d="M800 152.056L800 317.355C738.812 317.355 685.399 350.592 656.823 400.002C642.757 375.687 634.702 347.465 634.702 317.356C634.702 226.056 708.713 152.056 800 152.056Z" fill="#C00848"/>
<path d="M1276.97 447.261H1357.3C1347.85 525.168 1292.92 586 1174.19 586C1063.15 586 984 512.895 984 399.234C984 287.173 1064.33 213 1174.19 213C1291.14 213 1348.44 272.767 1357.3 352.278H1276.97C1269.88 311.719 1240.94 277.037 1175.96 277.037C1113.94 277.037 1066.1 323.992 1066.69 399.766C1066.69 476.608 1113.94 521.966 1176.55 521.966C1242.71 521.966 1270.47 487.816 1276.97 447.261Z" fill="#001231"/>
<path d="M1533.31 391.228H1612.46C1655.58 390.696 1677.44 368.286 1677.44 334.133C1677.44 300.515 1655.58 277.567 1612.46 277.567H1533.31V391.228ZM1787.89 580.134C1777.85 582.8 1763.67 585.468 1745.95 585.468C1687.48 585.468 1664.44 561.988 1643.77 526.237L1598.88 448.33H1533.31V582.8H1451.8V216.738H1612.46C1703.42 216.738 1759.54 258.359 1759.54 333.065C1759.54 384.293 1730.59 419.511 1685.11 436.589L1722.33 502.759C1732.37 520.367 1744.77 525.704 1760.13 525.704C1770.17 525.704 1777.26 524.636 1783.17 523.036L1787.89 580.134Z" fill="#001231"/>
<path d="M2161.78 521.434V582.799H1875.9V216.737H2158.24V278.638H1957.41V366.149H2135.79V425.916H1957.41V521.434H2161.78Z" fill="#001231"/>
<path d="M2472.47 445.124L2412.81 281.838L2352.56 445.124H2472.47ZM2494.32 503.29H2330.71L2301.76 582.798H2220.25L2364.96 216.737H2460.06L2604.77 582.798H2523.26L2494.32 503.29Z" fill="#001231"/>
<path d="M2735.31 279.168H2607.14V216.736H2945V279.168H2816.82V582.797H2735.31V279.168Z" fill="#001231"/>
</svg>
