<svg width="978" height="215" viewBox="0 0 978 215" fill="none" xmlns="http://www.w3.org/2000/svg">
<path d="M40.7448 214.367C40.7448 177.673 70.4888 147.927 107.183 147.927C143.879 147.927 173.623 177.673 173.623 214.367C173.623 189.905 153.794 170.073 129.329 170.073C121.261 170.073 113.699 172.231 107.183 176.002C93.9435 183.658 85.0381 197.97 85.0381 214.367H40.7448Z" fill="#ED145A"/>
<path d="M107.184 176.001C113.7 172.232 121.261 170.073 129.329 170.073C153.794 170.073 173.624 189.905 173.624 214.367H129.329C129.329 197.971 120.424 183.657 107.184 176.001Z" fill="#C00848"/>
<path d="M40.7448 -6.10352e-05C40.7448 24.4613 60.5741 44.2933 85.0381 44.2933C93.1061 44.2933 100.667 42.1359 107.183 38.3653C120.423 30.7079 129.329 16.3959 129.329 -6.10352e-05H173.623C173.623 36.6946 143.879 66.4386 107.183 66.4386C70.4888 66.4386 40.7448 36.6946 40.7448 -6.10352e-05Z" fill="#ED145A"/>
<path d="M40.7448 0H85.0381C85.0381 16.396 93.9435 30.708 107.183 38.3653C100.667 42.136 93.1061 44.2933 85.0381 44.2933C60.5741 44.2933 40.7448 24.4613 40.7448 0Z" fill="#C00848"/>
<path d="M147.928 107.184C147.928 70.4875 177.672 40.7435 214.367 40.7435C189.906 40.7435 170.074 60.5729 170.074 85.0382C170.074 93.1062 172.232 100.668 176.002 107.184C183.658 120.424 197.971 129.328 214.367 129.328V173.622C177.672 173.622 147.928 143.878 147.928 107.184Z" fill="#ED145A"/>
<path d="M170.074 85.0384C170.074 60.573 189.906 40.7437 214.367 40.7437V85.0384C197.971 85.0384 183.658 93.9437 176.002 107.184C172.232 100.668 170.074 93.1064 170.074 85.0384Z" fill="#C00848"/>
<path d="M0 85.0383V40.7437C36.696 40.7437 66.44 70.4876 66.44 107.184C66.44 143.878 36.696 173.622 0 173.622C24.4613 173.622 44.2947 153.793 44.2947 129.328C44.2947 121.261 42.136 113.7 38.3653 107.184C30.7093 93.9436 16.3973 85.0383 0 85.0383Z" fill="#ED145A"/>
<path d="M0 173.622V129.328C16.3973 129.328 30.7093 120.424 38.3653 107.184C42.136 113.7 44.2947 121.261 44.2947 129.328C44.2947 153.793 24.4613 173.622 0 173.622Z" fill="#C00848"/>
<path d="M385.227 124.003H413.767C410.409 151.693 390.893 173.313 348.712 173.313C309.259 173.313 281.139 147.331 281.139 106.935C281.139 67.1066 309.679 40.7439 348.712 40.7439C390.263 40.7439 410.619 61.9852 413.767 90.2452H385.227C382.708 75.8306 372.425 63.5026 349.341 63.5026C327.307 63.5026 310.308 80.1932 310.519 107.124C310.519 134.433 327.307 150.555 349.551 150.555C373.055 150.555 382.919 138.417 385.227 124.003Z" fill="#001231"/>
<path d="M476.303 104.089H504.423C519.743 103.9 527.507 95.9346 527.507 83.7959C527.507 71.8479 519.743 63.6932 504.423 63.6932H476.303V104.089ZM566.751 171.228C563.183 172.176 558.147 173.124 551.851 173.124C531.075 173.124 522.89 164.779 515.546 152.072L499.597 124.383H476.303V172.176H447.342V42.0719H504.423C536.742 42.0719 556.678 56.8652 556.678 83.4172C556.678 101.624 546.394 114.141 530.235 120.209L543.457 143.728C547.025 149.985 551.431 151.883 556.887 151.883C560.455 151.883 562.974 151.503 565.071 150.935L566.751 171.228Z" fill="#001231"/>
<path d="M699.59 150.366V172.175H598.019V42.0713H698.331V64.0713H626.979V95.1753H690.356V116.417H626.979V150.366H699.59Z" fill="#001231"/>
<path d="M809.971 123.245L788.777 65.2102L767.37 123.245H809.971ZM817.735 143.917H759.606L749.323 172.176H720.363L771.777 42.0715H805.563L856.979 172.176H828.019L817.735 143.917Z" fill="#001231"/>
<path d="M903.358 64.2617H857.819V42.0711H977.857V64.2617H932.318V172.176H903.358V64.2617Z" fill="#001231"/>
</svg>
