<svg width="742" height="164" viewBox="0 0 742 164" fill="none" xmlns="http://www.w3.org/2000/svg">
<path d="M30.9297 163.33C30.9297 135.49 53.4997 112.92 81.3397 112.92C109.18 112.92 131.75 135.49 131.75 163.33C131.75 144.77 116.7 129.72 98.1397 129.72C92.0197 129.72 86.2797 131.36 81.3397 134.22C71.2897 140.03 64.5397 150.89 64.5397 163.33H30.9297Z" fill="white"/>
<path opacity="0.7" d="M81.3398 134.22C86.2798 131.36 92.0199 129.72 98.1399 129.72C116.7 129.72 131.75 144.77 131.75 163.33H98.1399C98.1399 150.89 91.3898 140.03 81.3398 134.22Z" fill="white"/>
<path d="M30.9297 0.669922C30.9297 19.2299 45.9797 34.2799 64.5397 34.2799C70.6597 34.2799 76.3997 32.6399 81.3397 29.7799C91.3897 23.9699 98.1397 13.1099 98.1397 0.669922H131.75C131.75 28.5099 109.18 51.0799 81.3397 51.0799C53.4997 51.0799 30.9297 28.5199 30.9297 0.669922Z" fill="white"/>
<path opacity="0.7" d="M30.9297 0.669922H64.5397C64.5397 13.1099 71.2997 23.9699 81.3397 29.7799C76.3997 32.6399 70.6597 34.2799 64.5397 34.2799C45.9697 34.2799 30.9297 19.2299 30.9297 0.669922Z" fill="white"/>
<path d="M112.26 82.0001C112.26 54.1601 134.83 31.5901 162.67 31.5901C144.11 31.5901 129.06 46.6401 129.06 65.2001C129.06 71.3201 130.7 77.0601 133.56 82.0001C139.37 92.0501 150.23 98.8001 162.67 98.8001V132.41C134.83 132.41 112.26 109.84 112.26 82.0001Z" fill="white"/>
<path opacity="0.7" d="M129.061 65.2001C129.061 46.6401 144.111 31.5901 162.671 31.5901V65.2001C150.231 65.2001 139.371 71.9601 133.561 82.0001C130.701 77.0601 129.061 71.3201 129.061 65.2001Z" fill="white"/>
<path d="M0.00976562 65.2001V31.5901C27.8498 31.5901 50.4198 54.1601 50.4198 82.0001C50.4198 109.84 27.8498 132.41 0.00976562 132.41C18.5698 132.41 33.6198 117.36 33.6198 98.8001C33.6198 92.6801 31.9798 86.9401 29.1198 82.0001C23.3098 71.9501 12.4498 65.2001 0.00976562 65.2001Z" fill="white"/>
<path opacity="0.7" d="M0.00976562 132.41V98.8C12.4498 98.8 23.3098 92.04 29.1198 82C31.9798 86.94 33.6198 92.68 33.6198 98.8C33.6198 117.37 18.5698 132.41 0.00976562 132.41Z" fill="white"/>
<path d="M292.31 94.7601H313.97C311.42 115.77 296.61 132.18 264.61 132.18C234.67 132.18 213.34 112.46 213.34 81.8101C213.34 51.5901 235 31.5901 264.61 31.5901C296.14 31.5901 311.58 47.7101 313.97 69.1501H292.31C290.4 58.2101 282.6 48.8601 265.08 48.8601C248.36 48.8601 235.46 61.5201 235.62 81.9601C235.62 102.68 248.36 114.91 265.24 114.91C283.08 114.91 290.56 105.7 292.31 94.7601Z" fill="white"/>
<path d="M430.049 130.6C427.339 131.32 423.519 132.04 418.739 132.04C402.979 132.04 396.769 125.71 391.189 116.07L379.089 95.0601H361.419V131.32H339.449V32.6001H382.759C407.279 32.6001 422.409 43.8201 422.409 63.9701C422.409 77.7901 414.609 87.2801 402.349 91.8901L412.379 109.73C415.089 114.48 418.429 115.92 422.569 115.92C425.279 115.92 427.189 115.63 428.779 115.2L430.049 130.6ZM361.419 79.6501H382.759C394.379 79.5101 400.279 73.4601 400.279 64.2501C400.279 55.1801 394.389 49.0001 382.759 49.0001H361.419V79.6501Z" fill="white"/>
<path d="M530.84 114.77V131.32H453.77V32.6001H529.88V49.2901H475.74V72.8901H523.83V89.0101H475.74V114.77H530.84Z" fill="white"/>
<path d="M620.489 109.87H576.379L568.579 131.31H546.609L585.619 32.5901H611.259L650.269 131.31H628.299L620.489 109.87ZM614.599 94.1901L598.519 50.1501L582.279 94.1901H614.599Z" fill="white"/>
<path d="M685.46 49.4301H650.91V32.5901H741.99V49.4301H707.44V131.31H685.47V49.4301H685.46Z" fill="white"/>
</svg>
