<svg width="735" height="161" viewBox="0 0 735 161" fill="none" xmlns="http://www.w3.org/2000/svg">
<path d="M31.4395 160.84C31.4395 133.32 53.7495 111.01 81.2695 111.01C108.789 111.01 131.099 133.32 131.099 160.84C131.099 142.49 116.229 127.62 97.8795 127.62C91.8295 127.62 86.1595 129.24 81.2695 132.07C71.3395 137.81 64.6595 148.55 64.6595 160.84H31.4395Z" fill="#545454"/>
<path d="M81.2695 132.07C86.1595 129.24 91.8295 127.62 97.8795 127.62C116.23 127.62 131.1 142.49 131.1 160.84H97.8795C97.8795 148.55 91.1995 137.81 81.2695 132.07Z" fill="black"/>
<path d="M31.4395 0.0700684C31.4395 18.4201 46.3095 33.2901 64.6595 33.2901C70.7095 33.2901 76.3795 31.6701 81.2695 28.8401C91.1995 23.1001 97.8795 12.3601 97.8795 0.0700684H131.099C131.099 27.5901 108.789 49.9001 81.2695 49.9001C53.7495 49.9001 31.4395 27.5901 31.4395 0.0700684Z" fill="#545454"/>
<path d="M31.4395 0.0700684H64.6595C64.6595 12.3701 71.3395 23.1001 81.2695 28.8401C76.3795 31.6701 70.7095 33.2901 64.6595 33.2901C46.3095 33.2901 31.4395 18.4201 31.4395 0.0700684Z" fill="black"/>
<path d="M111.83 80.4601C111.83 52.9401 134.14 30.6301 161.66 30.6301C143.31 30.6301 128.44 45.5001 128.44 63.8501C128.44 69.9001 130.06 75.5701 132.89 80.4601C138.63 90.3901 149.37 97.0701 161.66 97.0701V130.29C134.14 130.29 111.83 107.98 111.83 80.4601Z" fill="#545454"/>
<path d="M128.439 63.8501C128.439 45.5001 143.309 30.6301 161.659 30.6301V63.8501C149.359 63.8501 138.629 70.5301 132.889 80.4601C130.059 75.5701 128.439 69.9001 128.439 63.8501Z" fill="black"/>
<path d="M0.880859 63.8501V30.6301C28.4009 30.6301 50.7109 52.9401 50.7109 80.4601C50.7109 107.98 28.4009 130.29 0.880859 130.29C19.2309 130.29 34.1009 115.42 34.1009 97.0701C34.1009 91.0201 32.4808 85.3501 29.6508 80.4601C23.9208 70.5301 13.1809 63.8501 0.880859 63.8501Z" fill="#545454"/>
<path d="M0.880859 130.29V97.0702C13.1809 97.0702 23.9108 90.3902 29.6508 80.4602C32.4808 85.3502 34.1009 91.0202 34.1009 97.0702C34.1009 115.41 19.2309 130.29 0.880859 130.29Z" fill="black"/>
<path d="M289.8 93.0701H311.21C308.69 113.84 294.05 130.05 262.42 130.05C232.83 130.05 211.74 110.56 211.74 80.2701C211.74 50.4001 233.15 30.6301 262.42 30.6301C293.58 30.6301 308.85 46.5601 311.21 67.7601H289.8C287.91 56.9501 280.2 47.7001 262.89 47.7001C246.36 47.7001 233.61 60.2201 233.77 80.4201C233.77 100.9 246.36 112.99 263.04 112.99C280.67 112.99 288.07 103.88 289.8 93.0701Z" fill="black"/>
<path d="M425.95 128.49C423.27 129.2 419.5 129.91 414.78 129.91C399.2 129.91 393.06 123.65 387.55 114.12L375.59 93.3501H358.12V129.19H336.4V31.6101H379.21C403.45 31.6101 418.4 42.7001 418.4 62.6201C418.4 76.2801 410.69 85.6601 398.57 90.2101L408.49 107.85C411.17 112.54 414.47 113.97 418.56 113.97C421.24 113.97 423.12 113.69 424.7 113.26L425.95 128.49ZM358.11 78.1401H379.2C390.69 78.0001 396.51 72.0201 396.51 62.9201C396.51 53.9601 390.69 47.8401 379.2 47.8401H358.11V78.1401Z" fill="black"/>
<path d="M525.58 112.84V129.2H449.4V31.6201H524.63V48.1201H471.12V71.4501H518.65V87.3801H471.12V112.84H525.58Z" fill="black"/>
<path d="M614.19 108.01H570.59L562.88 129.2H541.16L579.72 31.6201H605.06L643.62 129.2H621.9L614.19 108.01ZM608.36 92.5001L592.46 48.9701L576.41 92.5001H608.36Z" fill="black"/>
<path d="M678.4 48.2701H644.25V31.6301H734.28V48.2701H700.13V129.21H678.4V48.2701Z" fill="black"/>
</svg>
