<svg width="612" height="421" viewBox="0 0 612 421" fill="none" xmlns="http://www.w3.org/2000/svg">
<path d="M377.43 0.399902C377.43 40.0799 345.26 72.2499 305.58 72.2499C265.9 72.2499 233.73 40.0799 233.73 0.399902C233.73 26.8499 255.17 48.2999 281.63 48.2999C290.36 48.2999 298.53 45.9699 305.58 41.8899C319.9 33.6099 329.53 18.1299 329.53 0.399902H377.43Z" fill="#545454"/>
<path d="M305.58 41.8899C298.53 45.9699 290.36 48.2999 281.63 48.2999C255.17 48.2999 233.73 26.8499 233.73 0.399902H281.63C281.63 18.1399 291.26 33.6099 305.58 41.8899Z" fill="black"/>
<path d="M377.43 232.23C377.43 205.78 355.99 184.33 329.53 184.33C320.8 184.33 312.63 186.66 305.58 190.74C291.26 199.02 281.63 214.5 281.63 232.23H233.73C233.73 192.55 265.9 160.38 305.58 160.38C345.26 160.38 377.43 192.54 377.43 232.23Z" fill="#545454"/>
<path d="M377.43 232.23H329.53C329.53 214.5 319.9 199.02 305.58 190.74C312.63 186.66 320.8 184.33 329.53 184.33C355.99 184.33 377.43 205.78 377.43 232.23Z" fill="black"/>
<path d="M261.52 116.32C261.52 156 229.35 188.17 189.67 188.17C216.12 188.17 237.57 166.73 237.57 140.27C237.57 131.54 235.24 123.37 231.16 116.32C222.88 102 207.4 92.37 189.67 92.37V44.47C229.35 44.47 261.52 76.63 261.52 116.32Z" fill="#545454"/>
<path d="M237.57 140.27C237.57 166.73 216.12 188.17 189.67 188.17V140.27C207.4 140.27 222.88 130.64 231.16 116.32C235.23 123.36 237.57 131.54 237.57 140.27Z" fill="black"/>
<path d="M421.491 140.27V188.17C381.811 188.17 349.641 156 349.641 116.32C349.641 76.64 381.811 44.47 421.491 44.47C395.041 44.47 373.591 65.91 373.591 92.37C373.591 101.1 375.921 109.27 380.001 116.32C388.281 130.63 403.761 140.27 421.491 140.27Z" fill="#545454"/>
<path d="M421.49 44.47V92.37C403.76 92.37 388.28 102 380 116.32C375.92 109.27 373.59 101.1 373.59 92.37C373.59 65.91 395.04 44.47 421.49 44.47Z" fill="black"/>
<path d="M91.3195 377.26H116.35C113.4 401.55 96.2895 420.51 59.2895 420.51C24.6795 420.51 0.0195312 397.72 0.0195312 362.29C0.0195312 327.36 25.0495 304.23 59.2895 304.23C95.7395 304.23 113.59 322.86 116.35 347.65H91.3195C89.1095 335.01 80.0895 324.19 59.8395 324.19C40.5095 324.19 25.5995 338.83 25.7895 362.45C25.7895 386.4 40.5195 400.54 60.0295 400.54C80.6495 400.55 89.2995 389.9 91.3195 377.26Z" fill="black"/>
<path d="M250.541 418.68C247.411 419.51 242.991 420.34 237.471 420.34C219.251 420.34 212.071 413.02 205.631 401.87L191.641 377.58H171.211V419.5H145.811V305.39H195.881C224.231 305.39 241.711 318.37 241.711 341.65C241.711 357.62 232.691 368.6 218.521 373.92L230.121 394.55C233.251 400.04 237.111 401.7 241.901 401.7C245.031 401.7 247.241 401.37 249.081 400.87L250.541 418.68ZM171.211 359.79H195.881C209.321 359.62 216.131 352.64 216.131 341.99C216.131 331.51 209.321 324.36 195.881 324.36H171.211V359.79Z" fill="black"/>
<path d="M367.061 400.38V419.51H277.971V305.39H365.961V324.69H303.381V351.97H358.971V370.6H303.381V400.38H367.061Z" fill="black"/>
<path d="M470.689 394.72H419.699L410.679 419.51H385.279L430.379 305.39H460.019L505.119 419.51H479.719L470.689 394.72ZM463.879 376.59L445.289 325.69L426.509 376.59H463.879Z" fill="black"/>
<path d="M545.79 324.86H505.85V305.4H611.14V324.86H571.2V419.51H545.8V324.86H545.79Z" fill="black"/>
</svg>
