<svg width="739" height="508" viewBox="0 0 739 508" fill="none" xmlns="http://www.w3.org/2000/svg">
<path d="M456.299 0.919922C456.299 48.8199 417.479 87.6399 369.579 87.6399C321.679 87.6399 282.859 48.8199 282.859 0.919922C282.859 32.8499 308.739 58.7399 340.679 58.7399C351.209 58.7399 361.079 55.9199 369.589 50.9999C386.869 41.0099 398.499 22.3199 398.499 0.919922H456.299Z" fill="#ED145A"/>
<path d="M369.58 50.9999C361.08 55.9199 351.21 58.7399 340.67 58.7399C308.74 58.7399 282.85 32.8499 282.85 0.919922H340.67C340.67 22.3299 352.3 41.0099 369.58 50.9999Z" fill="#C00848"/>
<path d="M456.3 280.74C456.3 248.81 430.42 222.92 398.48 222.92C387.95 222.92 378.08 225.74 369.57 230.66C352.29 240.65 340.66 259.34 340.66 280.74H282.84C282.84 232.84 321.66 194.02 369.56 194.02C417.48 194.01 456.3 232.84 456.3 280.74Z" fill="#ED145A"/>
<path d="M456.3 280.74H398.48C398.48 259.34 386.86 240.66 369.57 230.66C378.07 225.74 387.94 222.92 398.48 222.92C430.42 222.92 456.3 248.81 456.3 280.74Z" fill="#C00848"/>
<path d="M316.4 140.83C316.4 188.73 277.58 227.55 229.68 227.55C261.61 227.55 287.5 201.67 287.5 169.73C287.5 159.2 284.68 149.33 279.76 140.82C269.77 123.54 251.08 111.91 229.68 111.91V54.0898C277.57 54.1098 316.4 92.9298 316.4 140.83Z" fill="#ED145A"/>
<path d="M287.49 169.74C287.49 201.67 261.6 227.56 229.67 227.56V169.74C251.07 169.74 269.75 158.12 279.75 140.83C284.67 149.33 287.49 159.2 287.49 169.74Z" fill="#C00848"/>
<path d="M509.49 169.74V227.56C461.59 227.56 422.77 188.74 422.77 140.84C422.77 92.9399 461.59 54.1199 509.49 54.1199C477.56 54.1199 451.669 79.9999 451.669 111.94C451.669 122.47 454.489 132.34 459.409 140.85C469.399 158.11 488.08 169.74 509.49 169.74Z" fill="#ED145A"/>
<path d="M509.49 54.1099V111.93C488.09 111.93 469.41 123.55 459.41 140.84C454.49 132.34 451.67 122.47 451.67 111.93C451.67 79.9899 477.56 54.1099 509.49 54.1099Z" fill="#C00848"/>
<path d="M110.969 455.78H141.189C137.639 485.09 116.969 507.98 72.3193 507.98C30.5493 507.98 0.779297 480.47 0.779297 437.7C0.779297 395.53 30.9993 367.63 72.3193 367.63C116.309 367.63 137.859 390.12 141.189 420.04H110.969C108.299 404.78 97.4193 391.73 72.9793 391.73C49.6493 391.73 31.6593 409.4 31.8793 437.91C31.8793 466.82 49.6493 483.89 73.1993 483.89C98.0893 483.89 108.529 471.04 110.969 455.78Z" fill="white"/>
<path d="M303.15 505.78C299.37 506.78 294.04 507.79 287.38 507.79C265.39 507.79 256.72 498.96 248.94 485.5L232.06 456.19H207.4V506.79H176.74V369.04H237.17C271.38 369.04 292.49 384.7 292.49 412.81C292.49 432.09 281.6 445.34 264.5 451.76L278.5 476.66C282.28 483.29 286.94 485.29 292.72 485.29C296.5 485.29 299.16 484.89 301.38 484.29L303.15 505.78ZM207.4 434.7H237.17C253.39 434.5 261.61 426.07 261.61 413.22C261.61 400.57 253.39 391.94 237.17 391.94H207.4V434.7Z" fill="white"/>
<path d="M443.79 483.69V506.78H336.25V369.04H442.45V392.33H366.91V425.26H434.01V447.75H366.91V483.69H443.79Z" fill="white"/>
<path d="M568.869 476.87H507.329L496.439 506.79H465.779L520.209 369.05H555.979L610.409 506.79H579.749L568.869 476.87ZM560.649 454.98L538.209 393.54L515.549 454.98H560.649Z" fill="white"/>
<path d="M659.511 392.54H611.301V369.05H738.381V392.54H690.171V506.79H659.511V392.54Z" fill="white"/>
</svg>
