<svg width="699" height="481" viewBox="0 0 699 481" fill="none" xmlns="http://www.w3.org/2000/svg">
<path d="M431.67 0.459961C431.67 45.8 394.92 82.55 349.58 82.55C304.24 82.55 267.49 45.8 267.49 0.459961C267.49 30.68 291.99 55.19 322.22 55.19C332.19 55.19 341.53 52.52 349.58 47.87C365.94 38.41 376.94 20.73 376.94 0.469971H431.67V0.459961Z" fill="white"/>
<path opacity="0.7" d="M349.58 47.87C341.53 52.53 332.19 55.19 322.22 55.19C291.99 55.19 267.49 30.69 267.49 0.459961H322.22C322.22 20.72 333.22 38.41 349.58 47.87Z" fill="white"/>
<path d="M431.67 265.33C431.67 235.11 407.17 210.6 376.94 210.6C366.97 210.6 357.63 213.27 349.58 217.92C333.22 227.38 322.22 245.06 322.22 265.32H267.49C267.49 219.98 304.24 183.23 349.58 183.23C394.92 183.23 431.67 219.99 431.67 265.33Z" fill="white"/>
<path opacity="0.7" d="M431.67 265.33H376.94C376.94 245.07 365.94 227.39 349.58 217.93C357.63 213.27 366.97 210.61 376.94 210.61C407.17 210.6 431.67 235.11 431.67 265.33Z" fill="white"/>
<path d="M299.24 132.9C299.24 178.24 262.49 214.99 217.15 214.99C247.37 214.99 271.88 190.49 271.88 160.26C271.88 150.29 269.21 140.95 264.56 132.9C255.1 116.54 237.42 105.54 217.16 105.54V50.8101C262.49 50.8101 299.24 87.5601 299.24 132.9Z" fill="white"/>
<path opacity="0.7" d="M271.88 160.26C271.88 190.49 247.38 214.99 217.15 214.99V160.26C237.41 160.26 255.09 149.26 264.55 132.9C269.21 140.95 271.88 150.29 271.88 160.26Z" fill="white"/>
<path d="M482.01 160.26V214.99C436.67 214.99 399.92 178.24 399.92 132.9C399.92 87.5601 436.67 50.8101 482.01 50.8101C451.79 50.8101 427.28 75.3101 427.28 105.54C427.28 115.51 429.95 124.85 434.6 132.9C444.07 149.26 461.75 160.26 482.01 160.26Z" fill="white"/>
<path opacity="0.7" d="M482.009 50.8101V105.54C461.749 105.54 444.069 116.54 434.609 132.9C429.949 124.85 427.289 115.51 427.289 105.54C427.289 75.3101 451.789 50.8101 482.009 50.8101Z" fill="white"/>
<path d="M104.781 431.03H133.381C130.021 458.78 110.461 480.45 68.1809 480.45C28.6409 480.45 0.460938 454.41 0.460938 413.93C0.460938 374.02 29.0609 347.6 68.1809 347.6C109.821 347.6 130.221 368.89 133.381 397.21H104.781C102.261 382.77 91.9509 370.41 68.8209 370.41C46.7409 370.41 29.7009 387.14 29.9109 414.12C29.9109 441.49 46.7309 457.64 69.0309 457.64C92.5909 457.64 102.471 445.48 104.781 431.03Z" fill="white"/>
<path d="M286.701 478.36C283.121 479.31 278.081 480.26 271.771 480.26C250.951 480.26 242.751 471.9 235.391 459.16L219.411 431.41H196.071V479.31H167.051V348.93H224.251C256.641 348.93 276.621 363.75 276.621 390.36C276.621 408.61 266.321 421.15 250.121 427.23L263.371 450.8C266.951 457.07 271.361 458.97 276.831 458.97C280.411 458.97 282.931 458.59 285.031 458.02L286.701 478.36ZM196.061 411.08H224.241C239.591 410.89 247.371 402.91 247.371 390.74C247.371 378.77 239.591 370.59 224.241 370.59H196.061V411.08Z" fill="white"/>
<path d="M419.819 457.45V479.31H318.029V348.93H418.559V370.98H347.059V402.15H410.569V423.44H347.059V457.46H419.819V457.45Z" fill="white"/>
<path d="M538.221 450.99H479.961L469.661 479.31H440.641L492.171 348.93H526.031L577.561 479.31H548.541L538.221 450.99ZM530.441 430.27L509.201 372.11L487.751 430.27H530.441Z" fill="white"/>
<path d="M624.031 371.16H578.391V348.92H698.691V371.16H653.051V479.31H624.031V371.16Z" fill="white"/>
</svg>
